<?xml version="1.0" encoding="utf-8"?>
<!-- Generator: Adobe Illustrator 26.2.1, SVG Export Plug-In . SVG Version: 6.00 Build 0)  -->
<svg version="1.1" id="レイヤー_1" xmlns="http://www.w3.org/2000/svg" xmlns:xlink="http://www.w3.org/1999/xlink" x="0px"
	 y="0px" viewBox="0 0 595.3 595.3" style="enable-background:new 0 0 595.3 595.3;" xml:space="preserve">
<g>
	<polygon points="264.8,451.7 264.8,451.7 264.8,451.7 	"/>
	<path d="M261.5,426.6c-0.1-0.3-0.2-0.6-0.4-0.9c-3.3-6.7-8.3-12.3-14.4-16.3c-0.1-0.1-0.2-0.2-0.3-0.3c-0.3-0.3-0.5-0.4-0.7-0.5
		c-0.1-0.1-0.2-0.1-0.3-0.2l0,0c0,0,0,0,0,0c0,0,0,0,0,0l0,0c-0.3-0.1-0.5-0.3-0.8-0.4c-6.2-3.6-13.5-5.8-21.2-5.8
		c-0.6,0-1.2,0-1.9,0.1c0,0,0,0,0,0c-0.1,0-0.2,0-0.2,0c-0.1,0-0.2,0-0.2,0c0,0-0.1,0-0.1,0c-6.2,0.3-12,2-17.1,4.8
		c-0.1,0-0.1,0-0.2,0c-0.2,0.1-0.4,0.2-0.6,0.3c-8,4.3-14.3,11.2-18.2,19.5c0,0.1-0.1,0.2-0.1,0.3c0,0,0,0.1,0,0.1
		c-0.1,0.2-0.2,0.4-0.3,0.6c-0.1,0.3-0.3,0.7-0.4,1.1c-1.9,4.8-3,10-3,15.5c0,4.9,0.8,9.6,2.3,14l0,0c2.1,6.1,5.6,11.5,10.1,16.1
		c7.6,7.6,18.2,12.3,29.8,12.3c0.9,0,1.9,0,2.9-0.1c0.2,0,0.3,0,0.4,0c0.5,0,1-0.1,1.5-0.2c0.2,0,0.3-0.1,0.5-0.1
		c0.2,0,0.5,0,0.7-0.1l0.1,0c18.1-2.5,32.4-16.6,35.5-34.5c0.4-2.4,0.6-4.9,0.6-7.3C265.5,438,264,432,261.5,426.6z M220.4,406.7
		c0.2,0,0.4,0.1,0.6,0c0.2,0,0.4,0.1,0.6,0.2c0.7,0.2,1.7,0.6,2.5,1c0.2,0.1,0.4,0.3,0.6,0.4c-1.8,2-3,4.2-3.8,6
		c-0.4,1-0.7,1.9-1,2.6l-15.5,5.2l-6.1-3.3c0.1-0.5,0.3-1,0.6-1.5c0.8-1.5,2.1-3,3.4-4.1c1.1-1,2.1-1.8,2.7-2.1
		c0.1,0,0.2-0.1,0.3-0.1C209.9,408.6,215,407.1,220.4,406.7z M202,443.1c-0.2,0.1-0.4,0.2-0.5,0.4c-1.1,0.8-2.1,1.9-3.1,3.1
		c-1.5,1.7-2.9,3.7-4,5.2c-0.3,0.4-0.6,0.8-0.8,1.2c-0.3-0.1-0.6-0.3-0.9-0.5c-1.2-0.7-2.5-1.8-3.4-2.7c-0.5-0.4-0.8-0.9-1.1-1.1
		c0,0-0.1-0.1-0.1-0.1c-0.3-1-1-3.9-1-8.3c0-2.8,0.3-6.2,1.2-10c0.1-0.4,0.4-0.9,0.6-1.5c0,0,0,0,0,0c0.4-0.6,1.1-1.4,1.9-2.1
		c1.3-1.2,2.9-2.3,4.2-3.1c0.4-0.3,0.8-0.5,1.1-0.7l6,3.3V443.1z M203.4,470.5c-0.2-0.2-0.4-0.3-0.5-0.4l-0.1-0.1l0,0l0,0
		c0,0,0,0,0,0c-0.1-0.1-0.2-0.1-0.2-0.2c0,0-0.1-0.1-0.1-0.1c-0.1,0-0.1-0.1-0.2-0.1c0,0-0.1,0-0.1-0.1l0,0c-0.1,0-0.3-0.3-0.6-0.7
		c-0.5-0.8-1.1-2.1-1.7-3.6c-0.8-2.2-1.6-4.8-2.1-6.8c-0.3-1-0.5-1.9-0.6-2.5c0,0,0,0,0-0.1c0.6-1,1.8-2.7,3.1-4.4
		c0.9-1.2,2-2.5,2.9-3.4c0.5-0.5,0.9-0.9,1.3-1.1c0.1-0.1,0.3-0.2,0.4-0.3l16.7,4.6c0.6,2.3,2.1,7.9,3.6,15.8c0,0.1-0.1,0.1-0.1,0.2
		c-0.6,0.7-1.4,1.7-2.4,2.7c-1.4,1.5-3,3.1-4.2,4.3c-0.5,0.5-1,1-1.4,1.3c-5.2-1-8.8-2.4-11-3.5
		C204.7,471.4,203.9,470.9,203.4,470.5z M200.6,474c1.9,1.5,6.7,4.4,15.8,6c0.1,0.2,0.3,0.3,0.4,0.4c0.4,0.5,1,0.9,1.5,1.3
		c-6.9-0.9-13.2-3.6-18.4-7.7L200.6,474z M245.9,464.2c-0.9,0.9-1.7,1.5-2.2,2c-0.2,0.1-0.3,0.3-0.4,0.4c0,0,0,0-0.1,0
		c-0.2,0-0.5,0-0.8,0c-1,0-2.5-0.1-4.1-0.2c-2.4-0.2-5-0.5-7.1-0.7c-0.8-0.1-1.4-0.2-2-0.2c-1.5-7.9-3-13.5-3.6-15.6
		c0.8-1.4,2.7-4.6,4.6-7.6c1-1.6,1.9-3.1,2.7-4.4c0.4-0.6,0.7-1.1,1-1.6c0,0,0,0,0,0c1.2-0.2,3.6-0.4,6.2-0.4c1.4,0,3,0.1,4.4,0.3
		c1.1,0.2,2.1,0.4,3,0.7c1,2.3,3.9,9.1,5.9,15.9c-0.4,1.6-1.1,3.1-2,4.6C249.8,460.1,247.6,462.5,245.9,464.2z M254,422.6
		c-0.4,0.2-0.8,0.5-1.1,1l-4.8,8.7c-1-0.3-2-0.5-3-0.6c-1.7-0.2-3.4-0.3-5-0.3c-2.5,0-4.8,0.2-6.2,0.4c-0.8-1.2-2.1-3.2-3.7-5.4
		c-1.2-1.7-2.5-3.5-3.8-5c-0.6-0.8-1.2-1.5-1.8-2.1c-0.2-0.2-0.3-0.3-0.5-0.5c0.2-0.7,0.5-1.6,1-2.8c0.7-1.7,1.9-3.7,3.4-5.1
		c0.6,0,1.5,0,2.7,0c1.9,0,4.4,0.1,6.7,0.3c1.1,0.1,2.2,0.3,3.2,0.5c0.6,0.1,1,0.3,1.4,0.4c0.2,0.1,0.4,0.2,0.5,0.3c0,0,0,0,0.1,0
		c0.1,0.1,0.3,0.3,0.4,0.4C247.7,415.3,251.2,418.7,254,422.6z M245.6,474.9c0.1-0.8,0.2-1.5,0.3-2.2c0.2-1.1,0.3-2.1,0.4-2.7
		c1-0.8,2.8-2.4,4.8-4.6c1.4-1.6,2.9-3.5,4.2-5.6c1-1.7,1.9-3.5,2.4-5.5l2-0.3C257.6,462.4,252.5,469.8,245.6,474.9z"/>
	<path d="M477.2,289c-0.8-3.7-1.4-7.2-2-10.7c-2.1-12-4.1-23.3-10.4-35.4c-1.1-2-2.3-4.2-3.6-6.4c-3.1-5.4-6.3-11-7.8-16.2
		c-1.6-5.6-1.1-12.8-0.7-19.8c0.2-3,0.4-6,0.4-8.7c0.1-18.1-2.9-29.9-9.1-36.1c-1.7-1.8-3.6-3-5.8-3.8c-0.8-1-1.7-2.1-2.7-3.1
		c-6.1-6.1-13.9-12.1-23.4-17.8l-1.7-1.1c-2.3-1.4-4.9-3-7.6-4.4c3.2-4.8,5.7-10.1,7.4-14.9c1.1,0.1,2.2-0.1,3.3-0.5
		c5-1.8,9.5-8.2,11.2-11.8c2-4.3,3.6-14.1-1.8-18.5c1.6-5.8,1.9-11.9,0.7-18.3c-1-5.5-5.8-18.2-14.1-21.9c-2.8-1.3-5.8-1.3-8.7-0.2
		c-1.2-1.7-2.9-3.1-5.2-4.1c-4.7-2.1-11.4-2.2-15.8-0.3c-5.4,2.4-12.9,7.9-17.1,12.6c-4.4,5-3.6,8.3-2.8,11.5
		c0.4,1.3,0.7,2.6,0.7,4.2c0,0.4-0.4,1.2-0.7,1.9c-0.4,0.9-0.9,2-1,3.2c-0.1,1.2,0.2,2.3,0.4,3.3c0.1,0.8,0.3,1.5,0.2,2
		c-0.3,1.6-0.8,2.3-1.7,3.6c-0.4,0.5-0.8,1.2-1.3,2c-3.7,6.2-1.8,11,0,15.6c0.5,1.2,1,2.4,1.4,3.7c0.8,2.4,1,5,1.1,7.8
		c-2.3,0.4-4.7,1-7.1,1.6c-2.2,0.5-4.5,1.1-6.9,1.6c-5.9,1.2-12.1,1.6-18.2,2.1c-5,0.4-10.2,0.8-15.2,1.6c-6.7,1-11,3.1-13.8,6.9
		c-5,1.9-10.2,4.3-15.3,7l-2,1.1c-7.8,4.2-15.9,8.6-23.1,13.9c-4,2.9-8.2,5.2-12.7,7.7c-1.7,0.9-3.5,1.9-5.2,2.9
		c-10.1,5.8-17.8,13.1-26.9,22c-6.2,6.1-11.2,13.2-15.9,20c-3.9,5.6-8,11.4-12.7,16.6c-3,3.3-6.2,4.5-10.2,6.1
		c-1.5,0.6-3.1,1.2-4.8,2l-1.5,0.7c-4.9,2.2-10,4.5-11.6,10.8c-1.3,5.3,0.3,10.1,4.7,13.6c2.3,1.9,12,8.7,17.5,8.7
		c0,0,0.6,0,0.4-0.1c4.6-0.5,5.8-4.1,6.6-6.5c0.3-1.1,0.6-1.9,1-2.5c0.7,0.2,1.5,0.1,2.1-0.3c4.3-3.1,5.2-6.9,5.9-10.2
		c0.5-2,0.9-3.8,1.9-5.6c0.8-1.4,2.2-2.5,3.7-3.8c1.2-1,2.3-1.9,3.2-3c1.9-2.2,3.3-4.6,4.6-7c0.9-1.5,1.7-2.9,2.6-4.3
		c8.8-12.9,22.3-25.5,35.2-32.7c3.7-2.1,6.1-1.6,8.9-1.5c1.5,0.1,3,0.2,4.8,0.1c1.8-0.1,2.8-0.5,3.4-0.9c0.1,0,0.5,0.1,2.2,0.9
		c2.2,1,4.2,2.8,6.3,4.7c2.8,2.5,5.6,5,9.1,6.2c1.4,0.4,2.5,0.8,3.5,0.8c1.9,0,3-1.2,4.5-2.8l1-1.1c1.7-1.8,3.4-3.7,5-5.6
		c1-1.2,2.1-2.3,3.1-3.5c0,0.2,0,0.3,0,0.5c0.7,12.7-1.5,24.3-3.9,36.6c-1.1,5.6-2.2,11.4-3,17.3c-0.3,1.9-0.5,3.7-0.8,5.5
		c-1.2,7.8-2.3,15.2-0.8,24c1,6.2-0.1,11.4-1.4,17.4c-0.3,1.2-0.5,2.5-0.8,3.8c-1.1,5.6-0.7,10.4,0.1,15.1
		c-2.8,10.7-3,25.5-1.4,34.8c2.1,11.5,5.4,25.9,12.4,35.2c4.8,6.3,11.6,11,18.2,15.5c2.4,1.7,4.8,3.3,7,5c3.7,2.9,6,5.5,5.8,9.7
		c-1.9,1-3.2,2.5-3.9,4.5c-2.5,6.6,3,16.8,6.6,23.5c0.8,1.5,1.6,2.8,2,3.8c2.1,4.6,2.7,9.7,3.4,15.1c0.8,5.7,1.5,11.5,4.1,16.8
		c3.2,6.7,14.6,16.7,24.3,16.7c3.4,0,9.3-1.3,11.4-10.2c1.4-6.2-1.2-11.9-3.7-17.5c-1.6-3.5-3.1-6.8-3.6-10.1
		c7.6,0.7,17.5-4.3,24-11.4c-0.1,0.1-0.1,0.3-0.2,0.4c-0.7,1.5-1.4,3-1.7,4.5c-2,9.1-0.3,20.2,0.9,26c3.7,18.4-2.2,37.9-9.1,56.3
		c-0.6,1.6-1.6,3.6-2.6,5.7c-4.2,8.5-9.9,20.3-2.1,27.2c3.5,3.1,8.8,3.2,13.1,3.2c1.2,0,2.4,0,3.4,0.1c2.9,0.2,5.9,0.6,8.8,1
		c4.6,0.6,9.4,1.2,14.3,1.2c0.9,0,1.8,0,2.9,0c6.2-0.3,9.5-0.6,10.6-3.2c1-2.5-1.1-5.1-3.7-8.1c-2.3-2.6-3.5-5.2-4.7-7.9
		c-1.3-2.8-2.6-5.6-5-8.5c-5.5-6.5-6-9.1-3-16.7c1.8-4.6,4-9.3,6-13.8c2.3-5.1,4.7-10.3,6.7-15.6c5.3-14.2,4.2-32,2.7-46
		c-0.4-4-0.3-8.2-0.3-12.3c0-3,0-5.9-0.1-8.8c0-1.4-0.1-2.8-0.1-4.2c-0.1-2.3-0.1-4.6-0.3-6.8c-0.1-0.8-0.5-2.3-0.9-3.8
		c-0.4-1.3-1-3.6-1-4.1c0.2-0.7,0.7-1,1.6-1.6c1.1-0.7,2.5-1.7,3.3-3.6c0.8-2.1,0.3-4.5-0.1-6.5c-0.1-0.7-0.3-1.3-0.3-1.9
		c-1-11.7-2.5-20.8-5-28.6l-1.1-3.4c-6.9-21.8-13.9-44.2-24.8-64.5c0.5-3.1-0.2-6.2-1.3-9.8c-1.5-5.1-1.8-10.5-2.2-16.2
		c-0.1-2-0.2-4.1-0.4-6.1c-0.1-1.3-0.3-2.8-0.5-4.4c-0.6-4.6-1.4-10.3-0.3-13.8c0.3-0.8,0.4-1.3,0.7-1.5c0.5-0.3,1.2-0.6,2.2-1.3
		c7.4-4.8,14-10.6,19.4-16.7c0.4,2.6,0.8,5.2,1.4,8c1.3,5.3,4.1,8.8,7.1,12.5c0.9,1.1,1.8,2.2,2.7,3.4c2.4,3.2,2.6,5.8,3,9.4
		c0.1,1,0.2,2.1,0.4,3.3c1.1,7.7,2.3,13.7,7.7,19.6c3.8,4.1,5.5,6.2,5.2,11c0,0.7-0.1,1.6-0.2,2.7c-0.9,8-1.4,16.1,2.3,20.2
		c0.9,1,2,1.6,3.3,2c0.1,4.1,3,5.7,5.9,7c2.1,0.9,4.2,1.4,6.2,1.4c3.6,0,6.9-1.6,9.3-4.7C476.9,303.4,478.6,295.8,477.2,289z"/>
</g>
</svg>
