<?xml version="1.0" encoding="utf-8"?>
<!-- Generator: Adobe Illustrator 26.2.1, SVG Export Plug-In . SVG Version: 6.00 Build 0)  -->
<svg version="1.1" id="レイヤー_1" xmlns="http://www.w3.org/2000/svg" xmlns:xlink="http://www.w3.org/1999/xlink" x="0px"
	 y="0px" viewBox="0 0 300 300" style="enable-background:new 0 0 300 300;" xml:space="preserve">
<path d="M150,36.8C87.6,36.8,36.8,87.6,36.8,150S87.6,263.2,150,263.2S263.2,212.4,263.2,150S212.4,36.8,150,36.8z M74.4,128.8
	l34.9,14.9l13.7,42.2L102.4,211H62.4c-11.8-16.9-18.9-37.5-19.2-59.6L74.4,128.8z M237.8,210.7h-40.4L177,185.9l13.7-42.2l34.9-14.9
	l31.1,22.6C256.4,173.4,249.5,193.8,237.8,210.7z M235.4,86l-11.9,36.7l-34.9,14.9l-35.2-25.6V71.5l31.1-22.6
	C204.8,55.9,222.6,69,235.4,86z M115.7,48.9l31.1,22.6v40.5l-35.2,25.6l-34.9-14.9L64.6,86C77.4,69,95.2,55.9,115.7,48.9z
	 M119,252.2l-11.9-36.7l21.6-26.2h42.6l21.7,26.4l-11.9,36.5c-9.9,3-20.3,4.7-31.2,4.7C139.2,256.8,128.8,255.1,119,252.2z"/>
</svg>
