<?xml version="1.0" encoding="utf-8"?>
<!-- Generator: Adobe Illustrator 26.2.1, SVG Export Plug-In . SVG Version: 6.00 Build 0)  -->
<svg version="1.1" id="レイヤー_1" xmlns="http://www.w3.org/2000/svg" xmlns:xlink="http://www.w3.org/1999/xlink" x="0px"
	 y="0px" viewBox="0 0 1125 2436" style="enable-background:new 0 0 1125 2436;" xml:space="preserve">
<style type="text/css">
	.st0{fill:none;}
	.st1{fill:#989898;stroke:#989898;}
</style>
<g id="コンポーネント_14_1" transform="translate(0.5 0.5)">
	<circle id="楕円形_5" class="st0" cx="562.5" cy="1217.5" r="12.5"/>
	<g id="topicon" transform="translate(-245.8 -368.5)">
		<g id="グループ_4488" transform="translate(245.8 368.5)">
			<path id="パス_341" class="st1" d="M574.5,1217.5H574c0,6.4-5.1,11.6-11.5,11.6c-6.4,0-11.6-5.1-11.6-11.5
				c0-6.4,5.1-11.6,11.5-11.6c3.1,0,6,1.2,8.2,3.4c2.2,2.2,3.4,5.1,3.4,8.1h1c0-6.9-5.6-12.5-12.5-12.5s-12.5,5.6-12.5,12.5
				s5.6,12.5,12.5,12.5l0,0c6.9,0,12.5-5.6,12.5-12.5H574.5z"/>
			<path id="パス_342" class="st1" d="M556,1218h9.2c0.3,0,0.5-0.2,0.5-0.5c0-0.3-0.2-0.5-0.5-0.5c0,0,0,0,0,0H556
				c-0.3,0-0.5,0.2-0.5,0.5C555.4,1217.7,555.6,1218,556,1218C555.9,1218,555.9,1218,556,1218"/>
			<path id="パス_343" class="st1" d="M563,1224.1l6.4-6.2c0.2-0.2,0.2-0.5,0-0.6c0,0,0,0,0,0l-6.4-6.2c-0.2-0.2-0.5-0.2-0.7,0
				c0,0,0,0,0,0c-0.2,0.2-0.2,0.5,0,0.6c0,0,0,0,0,0l6,5.9l-6,5.9c-0.2,0.2-0.2,0.5,0,0.6c0,0,0,0,0,0
				C562.5,1224.2,562.8,1224.2,563,1224.1C563,1224.1,563,1224.1,563,1224.1L563,1224.1z"/>
		</g>
	</g>
</g>
</svg>
