<?xml version="1.0" encoding="utf-8"?>
<!-- Generator: Adobe Illustrator 26.2.1, SVG Export Plug-In . SVG Version: 6.00 Build 0)  -->
<svg version="1.1" id="レイヤー_1" xmlns="http://www.w3.org/2000/svg" xmlns:xlink="http://www.w3.org/1999/xlink" x="0px"
	 y="0px" viewBox="0 0 595.3 595.3" style="enable-background:new 0 0 595.3 595.3;" xml:space="preserve">
<g>
	<path d="M414.1,479.9c0.3-2.2,0.5-4.4,0.5-6.5c0-6.3-1.4-12.2-3.8-17.5c0-0.5-0.3-1.1-0.7-1.5c-3.2-6.5-8.2-12.1-14.1-16
		c-0.1-0.2-0.2-0.3-0.3-0.5c-0.3-0.3-0.5-0.4-0.7-0.5c-0.1-0.1-0.2-0.1-0.3-0.2c0,0,0,0,0,0l0,0c0,0,0,0,0,0c-6.4-4-14-6.3-22.1-6.3
		c-0.7,0-1.6,0-2.5,0.1c0,0,0,0,0,0h0c-6.1,0.3-11.8,2-16.8,4.6c-0.1,0-0.3,0-0.5,0.1c-0.2,0.1-0.5,0.2-0.7,0.4l0,0
		c-0.1,0.1-0.4,0.3-0.6,0.4c-7.3,4.2-13.2,10.5-16.9,18.1c-0.2,0.2-0.3,0.4-0.4,0.7c-0.1,0.2-0.2,0.4-0.2,0.6
		c-0.1,0.2-0.2,0.4-0.3,0.6c-0.2,0.3-0.3,0.8-0.4,1.3l0,0c0,0,0,0.1,0,0.1c-1.8,4.7-2.9,9.9-2.9,15.3c0,4.9,0.8,9.6,2.3,14l0,0
		c2.1,6.1,5.6,11.5,10.1,16.1c7.6,7.6,18.2,12.3,29.7,12.3c0.9,0,1.9,0,2.9-0.1c0.2,0,0.3,0,0.5,0c0.5,0,1-0.1,1.4-0.2
		c0.2,0,0.4-0.1,0.6-0.1c0.2,0,0.4,0,0.6-0.1l0.1,0c17.9-2.5,32.2-16.3,35.4-34C414.1,480.8,414.2,480.4,414.1,479.9z M370,435.7
		c0.2,0,0.5,0.1,0.9,0.2c0.7,0.2,1.7,0.6,2.5,1c0.2,0.1,0.4,0.3,0.6,0.4c-1.8,2-3,4.2-3.8,6c-0.4,1-0.7,1.9-1,2.6l-15.5,5.2
		l-6.1-3.3c0.1-0.5,0.3-1,0.6-1.6c0.8-1.5,2.1-3,3.4-4.1c0.8-0.7,1.5-1.3,2.1-1.7c0.2-0.1,0.3-0.2,0.5-0.3c0.2,0,0.3-0.1,0.4-0.2
		C359.3,437.6,364.5,436,370,435.7z M351.4,472c-0.2,0.1-0.4,0.2-0.5,0.4c-1.1,0.8-2.1,1.9-3.1,3.1c-1.5,1.7-2.9,3.7-4,5.2
		c-0.3,0.4-0.6,0.8-0.8,1.2c-0.3-0.1-0.6-0.3-0.9-0.5c-1.2-0.7-2.5-1.8-3.4-2.7c-0.5-0.4-0.8-0.9-1.1-1.1c0,0-0.1-0.1-0.1-0.1
		c-0.3-1-1-3.9-1-8.3c0-2.7,0.3-6,1.1-9.8l0-0.1c0.1-0.3,0.3-0.7,0.5-1.2c0.1-0.1,0.2-0.2,0.2-0.4c0.1-0.2,0.2-0.4,0.3-0.6
		c0.4-0.5,0.9-1.1,1.5-1.6c1.3-1.2,2.9-2.3,4.2-3.1c0.4-0.2,0.7-0.4,1-0.6l6.1,3.3V472z M352.7,499.4c-0.2-0.2-0.4-0.3-0.5-0.4
		l-0.1-0.1l0,0l0,0c0,0,0,0,0,0c-0.1-0.1-0.2-0.1-0.2-0.2c0,0-0.1-0.1-0.1-0.1c-0.1,0-0.1-0.1-0.2-0.1c0,0-0.1,0-0.1-0.1l0,0
		c-0.1,0-0.3-0.3-0.6-0.7c-0.5-0.8-1.1-2.1-1.7-3.6c-0.8-2.2-1.6-4.8-2.1-6.8c-0.3-1-0.5-1.9-0.6-2.5c0,0,0,0,0-0.1
		c0.6-1,1.8-2.7,3.1-4.4c0.9-1.2,2-2.5,2.9-3.4c0.5-0.5,0.9-0.9,1.3-1.1c0.1-0.1,0.2-0.1,0.3-0.2l16.8,4.6c0.6,2.3,2.1,8,3.6,15.8
		c-0.1,0.1-0.1,0.1-0.2,0.2c-0.6,0.7-1.4,1.7-2.4,2.7c-1.4,1.5-3,3.1-4.2,4.3c-0.5,0.5-1,0.9-1.3,1.3c-5.2-1-8.8-2.4-11-3.5
		C354,500.3,353.2,499.8,352.7,499.4z M349.9,502.9c1.9,1.5,6.7,4.4,15.6,6c0.2,0.2,0.4,0.4,0.5,0.6c0.5,0.4,1,0.9,1.5,1.3
		c-6.9-0.9-13.3-3.6-18.5-7.8L349.9,502.9z M395.2,493.2c-0.9,0.9-1.7,1.5-2.2,2c-0.2,0.1-0.3,0.3-0.4,0.4c0,0,0,0-0.1,0
		c-0.2,0-0.5,0-0.8,0c-1,0-2.5-0.1-4.1-0.2c-2.4-0.2-5-0.5-7.1-0.7c-0.7-0.1-1.4-0.2-1.9-0.2c-1.5-7.9-3-13.5-3.6-15.6
		c0.9-1.4,2.7-4.6,4.6-7.6c1-1.6,1.9-3.1,2.7-4.4c0.4-0.6,0.7-1.1,1-1.6c0,0,0.1-0.1,0.1-0.1c1.2-0.2,3.6-0.4,6.1-0.4
		c1.4,0,3,0.1,4.4,0.3c1.1,0.1,2,0.4,2.9,0.7c1,2.2,3.9,9.1,6,16c-0.4,1.6-1.1,3.1-2,4.6C399.1,489.1,396.9,491.5,395.2,493.2z
		 M403.2,451.7c-0.4,0.2-0.8,0.5-1,1l-4.7,8.6c-1-0.3-2-0.5-3-0.6c-1.7-0.2-3.4-0.3-5-0.3c-2.6,0-4.8,0.2-6.3,0.4
		c-0.8-1.2-2.1-3.2-3.6-5.3c-1.2-1.7-2.5-3.5-3.8-5c-0.6-0.8-1.2-1.5-1.8-2.1c-0.2-0.2-0.3-0.3-0.5-0.5c0.2-0.7,0.5-1.6,1-2.8
		c0.7-1.7,1.9-3.7,3.4-5.1c0.6,0,1.5,0,2.7,0c1.9,0,4.4,0.1,6.7,0.3c1.1,0.1,2.2,0.3,3.2,0.5c0.7,0.2,1.3,0.3,1.7,0.5
		c0.2,0.2,0.4,0.4,0.6,0.6C396.9,444.3,400.4,447.7,403.2,451.7z M394.9,503.8c0.1-0.7,0.2-1.5,0.3-2.1c0.2-1.1,0.3-2.1,0.4-2.7
		c1-0.8,2.8-2.4,4.8-4.6c1.4-1.6,2.9-3.5,4.2-5.6c1-1.7,1.9-3.5,2.4-5.5l1.9-0.3C406.8,491.4,401.7,498.7,394.9,503.8z"/>
	<path d="M510.1,409.4c-1.9-1.5-4.8-3.6-7.9-6c-5.6-4.1-11.9-8.8-14.7-11.4c-2.6-2.4-6.7-4.3-10.8-6.2c-3.6-1.7-7.3-3.4-9.4-5.3
		c-5.8-4.9-12.4-10.1-17.3-10.1c-1.5,0-2.9,0.5-3.9,1.4c-2.5,2.3-4.6,4.7-5.8,6.2c-3.8-1.4-13.9-5.1-19.6-7.5
		c-1-0.4-24.6-10.1-35.9-10.1c-1.7,0-3,0.2-4.1,0.6c-5.5,2.1-9.3,2.3-10.4,2.3c-0.5,0-0.8,0-0.8,0c-0.8-0.6-3-2.8-5.7-5.5
		c1.1-1.3,1.8-2.2,2-2.4c0.3-0.4,0.5-0.9,0.5-1.5c-0.4-8.3-26.5-55.2-31.8-64.4c0.7-1.9,0.2-4.6-0.4-6.5c-0.1-4.6-0.1-9.6-0.1-10.2
		c0.2-0.8,0.4-1.6-4.6-10.9c0.1-1.6,0.5-5.6,1-8.1c0.7-3.4-0.9-7.7-1.7-9.5c0.4-1.7,1.8-6.4,5.1-12.4c3.4-6.2,7-15.1,8.6-19.1
		l29.8,11.4c0.2,0.1,0.4,0.1,0.6,0.1c3.7,0.3,7-0.2,10-1.2c11.6,8.8,37.2,19.6,59.7,28.4c14.2,5.6,22,11,23.5,12.1l5.2,7.4
		c0.3,0.3,6.3,7.9,13.9,9.2c1.1,0.2,2.1,0.3,3,0.3c6,0,7.4-3.6,7.3-3.7c0.6-1,1.5-2.1,1.8-2.3c2.3,0,3.9-2,5.3-3.7
		c0.5-0.6,1.1-1.3,1.6-1.9c3.1-2.9,0.8-8.1,0.2-9.1c-0.2-0.2-5-6.1-10.7-8.9c-5.2-2.6-18.3-3.8-21.3-4l-8.1-4.2
		c-3-2.7-35.9-32.8-43.8-40.2c-4.7-4.4-10.8-6.1-15.6-6.8c-0.2-0.3-0.4-0.7-0.7-0.9c0,0-9.2-5.3-15.7-8.8
		c-5.3-2.8-19.1-18.4-28.3-28.7l-3.8-4.3c-5-5.6-9.6-8.5-13.6-8.5c-0.7,0-1.3,0.1-1.8,0.2c-7.1-5.4-14.4-9.5-21.7-12.7
		c10-13.2,10.1-22.2,9.7-25.3c4.3-6.9,3.7-23.2,3.7-23.4c-0.7-17.7-16-25.7-30.9-25.7c-8.2,0-15.2,2.4-18,6.2
		c-4.8,6.5-8,22.2-8.6,25.7c-2.5,2.7-3.6,5.7-3.3,9c0.3,3.3,2,6.1,3.9,8.5c0.1,4.8-0.3,10.5-1.8,14.6c-1.9-0.1-3.8-0.1-5.4-0.1
		c-3.8,0-6.5,0.2-7.7,0.3c-9.3-4-26.5-5.9-39.2-7.3c-5.5-0.6-10.3-1.2-13.1-1.7c-9.5-1.8-17.7-5.5-17.7-5.5h-0.1
		c-3.4-4.9-10.2-11.8-23.2-14.6c-19.2-4.1-60.7-10.9-60.9-10.9l-10.1-3.6c-1.4-1.5-6.5-6.7-10.9-10.1C80,63.8,69,63,65.4,63.5
		c-3.1,0.3-7.5,2.5-9.1,5.1c-0.3,0.5-0.5,1-0.6,1.4c-1.1,0.2-2.8,0.7-3.4,2.4c-0.7,1.8,0.4,3.5,1.2,4.6c3.7,4.9,5.7,6.4,11,8
		c2,0.6,3.6,2,5.4,3.6c2,1.8,4.2,3.8,7.4,5C83.4,96,89.9,96,93,96c2.1,0,12.1,5,13.8,6.3c1.7,1.3,27.2,18.1,33.3,20.2
		c4.7,1.6,18.8,3.5,27.3,4.7c2.2,0.3,3.9,0.5,5,0.7c2.2,0.3,6.8,1.1,10.8,2.7c0.4,9.9,2.1,19.5,2.5,21.4c0.2,0.8,0.7,1.5,1.5,1.7
		c11.7,3.7,36.8,19.7,41.6,22.8c0.5,2.8,2.1,11.2,2.5,13.4c0.3,2.4-0.4,40.4-0.7,52.9c-0.1,3.9-0.1,6.5-0.1,6.8
		c0,1.5,1.4,13.4,1.9,16.9l-3.7,11.7c-0.1,0.4-0.1,0.8,0,1.2c1.5,6.4,2.6,10.2,3.5,12.7L205,340.9c-0.4,0.6-8.4,14.9-3.8,27.7
		c-1,3.3-1,8,1.4,14.5c5.6,15.4,31.9,70,36.4,75.8c1.5,1.9,3.9,4.7,6.6,7.8c4.4,5.1,10.3,12,11.4,14.2c1.3,2.6,1.9,7.5,2,9.7
		c-0.6,1.7-3.3,9-7.6,12.6c-1,0.9-1.9,1.6-2.7,2.3c-3.5,2.9-5.7,4.7-5.7,8.2c0,1.6,0.7,6.7,10.1,6.7c5.4,0,12.4-1.7,19.2-4.6
		c10.6-4.6,13.9-4.9,15.7-5c0.5,0,0.9-0.1,1.3-0.2c0.3-0.1,0.8-0.1,1.2-0.2c2.9-0.4,6.8-1.1,8.2-3.5c1.5-2.5,2.7-10.4-3.4-14.8
		C291,489,285,480.3,284.5,479c-0.4-1.6-8.1-19-8.9-20.1c-0.1-0.4-0.4-1.6-0.8-3.3c-2.7-11.5-9.8-42-23.2-55.3
		c-2.3-4.5-4.9-9.9-5.1-10.5c0.1-0.2,0.3-0.6,0.6-1c1.8,1.3,4.2,2.7,6.5,2.9c0.1,0,0.2,0,0.3,0c2.2,0,4.6-2.4,17.9-18.3
		c5-6,12.2-14.6,17.6-20.4c13.2,15.7,24.6,29,32.7,31.1c1.1,0.3,2.2,0.4,3.3,0.4c4.9,5.6,12.7,14,18.2,16.9
		c7.2,3.7,12.8,3.8,31.3,3.9c3.6,0,7.6,0.1,12.3,0.1h4.2c7.5,0,14.6-0.3,20.8-0.5c5.4-0.2,10.3-0.4,14.9-0.4c10.2,0,16.5,1,21.1,3.3
		c6.3,3.1,15.5,6.3,24.4,9.3c8.2,2.8,15.9,5.4,19.1,7.3c1.1,0.7,2.2,1.4,3.3,2.1c3.9,2.5,7.3,4.7,10.4,4.7c2,0,3.6-0.9,4.8-2.5
		C514.2,423.8,516.5,414.4,510.1,409.4z"/>
</g>
</svg>
