<?xml version="1.0" encoding="utf-8"?>
<!-- Generator: Adobe Illustrator 26.2.1, SVG Export Plug-In . SVG Version: 6.00 Build 0)  -->
<svg version="1.1" id="_x31_0" xmlns="http://www.w3.org/2000/svg" xmlns:xlink="http://www.w3.org/1999/xlink" x="0px" y="0px"
	 viewBox="0 0 512 512" style="enable-background:new 0 0 512 512;" xml:space="preserve">
<style type="text/css">
	.st0{fill:#9FA0A0;}
</style>
<path class="st0" d="M388.9,210.2C388.9,210.2,388.9,210.2,388.9,210.2c0,0-0.1,0-0.1,0.1c0,0-0.1,0-0.1,0c0.1-0.1,0.1-0.2,0.2-0.2
	c-7.4,3.3-15.2,5.6-23.3,7.1c-1.7,0.3-3.4,0.5-5.1,0.7c0,0,0,0-0.1,0c-0.2,0-0.4,0-0.6,0c8.2-5.1,14.9-12.4,19.2-21.1
	c1.2-2.3,2.3-4.6,3.1-7c0,0,0,0,0,0c0,0,0,0,0,0c0,0-0.1,0-0.1,0.1c0,0,0,0-0.1,0c0-0.1,0.1-0.1,0.1-0.2c-9.9,5.9-21,10.2-32.7,12.5
	c-9.4-10-22.8-16.3-37.6-16.3c-28.5,0-51.5,23.1-51.5,51.5c0,3.7,0.4,7.2,1.2,10.7c0,0.3,0.1,0.7,0.1,1c-37.4-1.9-71.1-17.8-96-42.6
	c-3.5-3.5-6.9-7.2-10-11.1v0l0,0c0,0,0,0,0,0c0,0-0.1-0.1-0.1-0.1c-4.4,7.6-7,16.5-7,25.9c0,14.7,6.2,27.8,16,37.2
	c0.8,0.8,1.8,1.5,2.6,2.2c1.3,1.2,2.6,2.3,3.8,3.4c-8.3-0.3-16.1-2.6-22.9-6.4c0,0.2,0,0.4,0,0.6c0,20.8,12.4,38.5,30.1,46.7
	c2.6,1.2,5.2,2.2,8,3c0.9,0.3,1.9,0.7,2.8,0.9c-4.2,1.1-8.5,1.7-13,1.7c-2.7,0-5.3-0.3-7.9-0.7c-0.6-0.1-1.1-0.2-1.7-0.3l0,0l0,0v0
	c0,0,0,0,0,0.1c-0.1,0-0.1,0-0.2,0c5.7,17.9,21,31.6,39.9,35c1.6,0.3,3.2,0.4,4.8,0.5c1.1,0.1,2.1,0.3,3.2,0.5
	c-17.6,13.7-39.7,21.9-63.7,21.9c-3.5,0-6.9-0.3-10.3-0.6c-0.6-0.1-1.3-0.1-1.9-0.3c0,0,0,0,0.1,0c0,0,0,0,0,0
	c0.1,0,0.1,0.1,0.2,0.1c-0.1,0-0.2,0-0.3,0c22.8,14.6,49.9,23.1,79,23.1c2.5,0,4.8-0.3,7.3-0.4c1.4-0.1,2.8-0.1,4.2-0.2
	c4.1-0.3,8.1-0.7,12-1.3c1.9-0.3,3.8-0.5,5.6-0.9c2.4-0.4,4.7-0.9,7.1-1.5c3.1-0.7,6.1-1.5,8.9-2.4c2.1-0.6,4.1-1.3,6.1-2.1
	c2.3-0.8,4.6-1.7,6.8-2.7c2.5-1,4.9-2.1,7.2-3.3c1.7-0.8,3.3-1.7,5-2.6c2.8-1.5,5.4-3,8-4.7c1-0.7,2.1-1.3,3.1-2
	c8-5.4,15.4-11.5,22-18.2c0,0,0,0,0,0c1.3-1.3,2.7-2.5,3.9-3.9c0.2-0.2,0.4-0.5,0.6-0.7c2.7-3,5.2-6,7.6-9.2
	c0.6-0.8,1.2-1.5,1.7-2.3c2-2.8,3.9-5.6,5.8-8.5c0.7-1.2,1.5-2.3,2.2-3.5c1.6-2.7,3.1-5.5,4.6-8.3c0.7-1.3,1.3-2.6,2-3.9
	c1.4-3,2.8-6,4-9.1c0.4-1,0.8-2,1.2-3.1c1.4-3.7,2.6-7.5,3.8-11.3c0.1-0.3,0.2-0.6,0.3-0.9c3.8-13.3,5.8-26.8,5.8-39.9
	c0-2.2-0.1-4.5-0.2-6.7c1.2-0.8,2.2-1.9,3.3-2.8c1.6-1.2,3.1-2.5,4.6-3.9c2.2-2,4.4-4.1,6.4-6.2c1.3-1.3,2.5-2.7,3.7-4.1
	c1-1.2,2.2-2.2,3.1-3.5c1.5-1.9,3-3.8,4.4-5.8C388.8,210.4,388.8,210.3,388.9,210.2L388.9,210.2L388.9,210.2z M386.5,434.9H128.3
	c-15.7,0-28.3-12.7-28.3-28.3V148.3c0-15.7,12.7-28.3,28.3-28.3h258.2c15.7,0,28.3,12.7,28.3,28.3v258.2
	C414.9,422.2,402.2,434.9,386.5,434.9z"/>
</svg>
